<svg xmlns="http://www.w3.org/2000/svg" viewBox="0 0 512 512" role="img" aria-label="Kelas Nusantara logo">
  <defs>
    <linearGradient id="faceGradient" x1="0" x2="0" y1="0" y2="1">
      <stop offset="0" stop-color="#00c8d9" />
      <stop offset="1" stop-color="#0098b7" />
    </linearGradient>
  </defs>
  <rect width="512" height="512" rx="112" fill="none" />
  <g stroke="#0f0f0f" stroke-width="28" stroke-linecap="round" stroke-linejoin="round" fill="none">
    <path d="M160 184c0-64 48-112 96-112s96 48 96 112" />
    <path d="M124 240c-32 16-52 52-48 88 4 44 40 76 84 76h192c44 0 80-32 84-76 4-36-16-72-48-88" />
    <path d="M176 324c0 40 44 72 80 72s80-32 80-72" />
  </g>
  <g fill="none" stroke="#0f0f0f" stroke-width="20" stroke-linecap="round" stroke-linejoin="round">
    <path d="M156 280h200" />
    <path d="M208 344h96" />
  </g>
  <g fill="#fb9a00" stroke="#0f0f0f" stroke-width="18" stroke-linejoin="round">
    <path d="M216 88h80l24 56h-128z" />
  </g>
  <g fill="#ffe04d" stroke="#0f0f0f" stroke-width="18" stroke-linejoin="round">
    <path d="M152 176c-36 0-72 16-88 38l48 68 64-40z" />
    <path d="M360 176c36 0 72 16 88 38l-48 68-64-40z" />
  </g>
  <g fill="#04c5cf" stroke="#0f0f0f" stroke-width="18" stroke-linejoin="round">
    <path d="M160 340v96l96 72 96-72v-96l-96 56z" />
  </g>
  <g fill="#04c5cf" stroke="#0f0f0f" stroke-width="18" stroke-linejoin="round">
    <path d="M176 96l-56 92 48 56 52-84z" />
    <path d="M336 96l56 92-48 56-52-84z" />
  </g>
  <g fill="#0f0f0f">
    <circle cx="196" cy="248" r="20" />
    <circle cx="316" cy="248" r="20" />
  </g>
  <path d="M216 312c12-12 68-12 80 0" fill="none" stroke="#0f0f0f" stroke-width="20" stroke-linecap="round" />
  <path d="M248 408 216 464" stroke="#0f0f0f" stroke-width="20" stroke-linecap="round" stroke-linejoin="round" />
  <path d="M264 408 296 464" stroke="#0f0f0f" stroke-width="20" stroke-linecap="round" stroke-linejoin="round" />
</svg>
